<svg id="Layer_1" data-name="Layer 1" xmlns="http://www.w3.org/2000/svg" width="292" height="68" viewBox="0 0 292 68"><defs><style>.cls-1{fill:#4c8c1e;}.cls-2{fill:#666;}</style></defs><path class="cls-1" d="M32,33.3c0-9.72,4.74-18.14,18.87-18.14C50.82,24.91,44.4,33.3,32,33.3"/><path class="cls-1" d="M54.57,58.84a18.55,18.55,0,0,0,6.77-1.15c0-7.69-4.59-13.19-12.7-17.16a48,48,0,0,0-20.81-4.72c3.05-9.18.83-20.56-2.14-26.81-3.28,6.55-5.33,17.77-2.18,26.9-6.18.45-11.09,3.15-13.17,6.7-.16.28-.47.85-.28.95s.39-.16.53-.29a11.91,11.91,0,0,1,8-3.08c6.57,0,11.21,5.45,14.49,8.72,7,7.05,13.93,10,21.45,9.94"/><path d="M81.71,22.69l-3.42,1.76a1.42,1.42,0,0,1-.52.21c-.12,0-.25-.08-.34-.3-.77-1.84-1.88-2.52-3-2.52H71.57a3.12,3.12,0,0,0-3.08,3.08V37.59a3.12,3.12,0,0,0,3.08,3.08h2.09a3,3,0,0,0,3-3.08v-2c0-.3-.12-.43-.42-.43h-4c-.3,0-.43-.13-.43-.43V31.08c0-.3.13-.43.43-.43h9c.3,0,.43.13.43.43v6.51c0,4.45-3.13,7.57-8,7.57H71.57c-4.88,0-8-3.12-8-7.57V24.92c0-4.45,3.08-7.58,8-7.58h2.82c3.55,0,5.48,1.46,6.77,3.47A6.27,6.27,0,0,1,82,22.39C82,22.52,81.88,22.61,81.71,22.69Z"/><path d="M95.32,44.74H85.69c-.3,0-.42-.13-.42-.43V18.2c0-.3.12-.43.42-.43h9.63c4.88,0,8,3.12,8,8v.43A7.13,7.13,0,0,1,101,30.78a.38.38,0,0,0-.17.3.35.35,0,0,0,.17.3,7.63,7.63,0,0,1,2.27,4.84v.64C103.29,41.7,100.2,44.74,95.32,44.74Zm3.09-19.39a3.14,3.14,0,0,0-3.09-3.09h-4.7c-.3,0-.43.13-.43.43v5.7c0,.29.13.42.43.42h4.7a3.13,3.13,0,0,0,3.09-3.08Zm0,11a3,3,0,0,0-3.09-3h-4.7c-.3,0-.43.13-.43.43v6.07c0,.3.13.43.43.43h4.7a3.07,3.07,0,0,0,3.09-3.08Z"/><path d="M111.85,44.74h-4.07c-.3,0-.43-.13-.43-.43V18.2c0-.3.13-.43.43-.43h4.07c.3,0,.43.13.43.43V44.31C112.28,44.61,112.15,44.74,111.85,44.74Z"/><path d="M133.21,22.26H123c-.3,0-.43.13-.43.43v5.7c0,.29.13.42.43.42h8.35c.3,0,.42.13.42.43v3.64c0,.3-.12.43-.42.43H123c-.3,0-.43.13-.43.43V44.31c0,.3-.13.43-.43.43H118.1c-.3,0-.43-.13-.43-.43V18.2c0-.3.13-.43.43-.43h15.11c.3,0,.43.13.43.43v3.64C133.64,22.14,133.51,22.26,133.21,22.26Z"/><path class="cls-2" d="M70.45,58.84a.18.18,0,0,1-.17-.1.23.23,0,0,1,0-.21L74.1,52a.61.61,0,0,1,.17-.19.41.41,0,0,1,.27-.08H75.9a.33.33,0,0,1,.24.08.41.41,0,0,1,.08.19l1,6.54a.29.29,0,0,1-.06.23.22.22,0,0,1-.18.08H76a.29.29,0,0,1-.21-.07.38.38,0,0,1-.08-.17l-.2-1.1H72.62l-.68,1.13a.62.62,0,0,1-.14.14.29.29,0,0,1-.22.07Zm2.83-2.66h2.1L75,53.25Z"/><path class="cls-2" d="M78.3,58.84a.22.22,0,0,1-.16-.07.21.21,0,0,1,0-.19l1-4.78a.31.31,0,0,1,.12-.18.28.28,0,0,1,.19-.07h.94a.18.18,0,0,1,.16.07.22.22,0,0,1,0,.18l-.07.35a2.57,2.57,0,0,1,.39-.35,1.75,1.75,0,0,1,.49-.26,2.08,2.08,0,0,1,.65-.09,1.79,1.79,0,0,1,1,.23,1.26,1.26,0,0,1,.52.66,2.61,2.61,0,0,1,.73-.64,1.93,1.93,0,0,1,1-.25,1.78,1.78,0,0,1,.94.24,1.32,1.32,0,0,1,.57.73,2.42,2.42,0,0,1,0,1.26l-.62,2.9a.29.29,0,0,1-.11.19.31.31,0,0,1-.18.07h-1a.22.22,0,0,1-.16-.07.21.21,0,0,1,0-.19l.61-2.81a1.67,1.67,0,0,0,0-.66.53.53,0,0,0-.22-.34.73.73,0,0,0-.41-.1,1,1,0,0,0-.44.1,1.14,1.14,0,0,0-.43.34,1.43,1.43,0,0,0-.27.66l-.61,2.81a.39.39,0,0,1-.1.19.35.35,0,0,1-.2.07h-1a.21.21,0,0,1-.17-.07.24.24,0,0,1,0-.19l.6-2.81a1.53,1.53,0,0,0,0-.66.54.54,0,0,0-.23-.34.72.72,0,0,0-.4-.1,1.12,1.12,0,0,0-.45.1,1.35,1.35,0,0,0-.42.35,1.52,1.52,0,0,0-.28.64l-.6,2.82a.32.32,0,0,1-.1.19.37.37,0,0,1-.19.07Z"/><path class="cls-2" d="M89.81,58.94a2.67,2.67,0,0,1-1.29-.29,1.5,1.5,0,0,1-.7-.86,2.76,2.76,0,0,1,0-1.39c0-.06,0-.13,0-.22a1.62,1.62,0,0,1,.06-.22,3.82,3.82,0,0,1,.63-1.35,3,3,0,0,1,1.07-.86,3.26,3.26,0,0,1,1.4-.3,2.25,2.25,0,0,1,1.35.35,1.6,1.6,0,0,1,.65,1,3,3,0,0,1,0,1.39l0,.24a.3.3,0,0,1-.11.17.31.31,0,0,1-.2.07H89.3v0s0,0,0,0a2,2,0,0,0,0,.6.8.8,0,0,0,.24.43.72.72,0,0,0,.49.16,1.11,1.11,0,0,0,.43-.07,1.14,1.14,0,0,0,.31-.17,2,2,0,0,0,.2-.18.6.6,0,0,1,.17-.12.44.44,0,0,1,.19,0h1a.21.21,0,0,1,.16.06.17.17,0,0,1,0,.16,1.18,1.18,0,0,1-.25.4,2.85,2.85,0,0,1-.57.47,3.65,3.65,0,0,1-.84.38A3.59,3.59,0,0,1,89.81,58.94Zm-.3-3.24h2v0a1.24,1.24,0,0,0,0-.63.71.71,0,0,0-.26-.42.72.72,0,0,0-.5-.16,1,1,0,0,0-.57.16,1.21,1.21,0,0,0-.42.42,2,2,0,0,0-.26.63Zm1-2.91c-.11,0-.15-.06-.13-.17a.26.26,0,0,1,.08-.13l1.09-1.05a.84.84,0,0,1,.21-.15.41.41,0,0,1,.21,0h1.17q.16,0,.15.18a.19.19,0,0,1-.08.15l-1.53,1.06a.77.77,0,0,1-.19.11.6.6,0,0,1-.21,0Z"/><path class="cls-2" d="M93.74,58.84a.22.22,0,0,1-.16-.07.21.21,0,0,1,0-.19l1-4.78a.3.3,0,0,1,.11-.17.25.25,0,0,1,.19-.08h1a.16.16,0,0,1,.15.08.21.21,0,0,1,0,.17l-.08.41a1.81,1.81,0,0,1,.61-.48,2.11,2.11,0,0,1,.91-.18H98a.19.19,0,0,1,.16.07.22.22,0,0,1,0,.18l-.2.88a.32.32,0,0,1-.1.18.28.28,0,0,1-.19.07h-.89a1.17,1.17,0,0,0-.75.25,1.26,1.26,0,0,0-.41.71l-.58,2.69a.27.27,0,0,1-.1.19.37.37,0,0,1-.2.07Z"/><path class="cls-2" d="M98.3,58.84a.22.22,0,0,1-.16-.07.21.21,0,0,1,0-.19l1-4.78a.34.34,0,0,1,.11-.18.32.32,0,0,1,.2-.07h1a.19.19,0,0,1,.17.07.27.27,0,0,1,0,.18l-1,4.78a.32.32,0,0,1-.1.19.34.34,0,0,1-.19.07Zm1.27-6.1a.21.21,0,0,1-.17-.08.21.21,0,0,1,0-.18l.17-.81a.29.29,0,0,1,.11-.19.28.28,0,0,1,.2-.08h1.06a.2.2,0,0,1,.17.08.24.24,0,0,1,0,.19l-.19.81a.21.21,0,0,1-.1.18.29.29,0,0,1-.19.08Z"/><path class="cls-2" d="M103.36,58.94a2.53,2.53,0,0,1-1.22-.28,1.68,1.68,0,0,1-.79-.79,2.08,2.08,0,0,1-.12-1.26c0-.11,0-.25.08-.41s.06-.3.09-.41a3.08,3.08,0,0,1,1-1.73,3,3,0,0,1,1.93-.61,2.8,2.8,0,0,1,1.11.19,2.11,2.11,0,0,1,.71.48,1.6,1.6,0,0,1,.36.6,1.41,1.41,0,0,1,.07.55.31.31,0,0,1-.09.18.28.28,0,0,1-.19.07h-1.11a.18.18,0,0,1-.15-.05.24.24,0,0,1-.08-.16.68.68,0,0,0-.2-.52.79.79,0,0,0-.54-.16,1.21,1.21,0,0,0-.8.29,1.76,1.76,0,0,0-.5.92l-.09.38c0,.12,0,.24-.06.34a1.32,1.32,0,0,0,.08.91.69.69,0,0,0,.63.29,1.28,1.28,0,0,0,.63-.15,1.17,1.17,0,0,0,.47-.51.45.45,0,0,1,.13-.16.24.24,0,0,1,.18-.06H106a.18.18,0,0,1,.16.08.19.19,0,0,1,0,.18,2.16,2.16,0,0,1-.25.52,2.85,2.85,0,0,1-.53.6,3,3,0,0,1-.85.49A3.74,3.74,0,0,1,103.36,58.94Z"/><path class="cls-2" d="M109,58.94a2.16,2.16,0,0,1-.88-.17,1.27,1.27,0,0,1-.58-.49,1.65,1.65,0,0,1-.28-.76,3,3,0,0,1,0-1,2.7,2.7,0,0,1,.07-.35c0-.11,0-.22.07-.34a4.64,4.64,0,0,1,.36-1,3,3,0,0,1,.55-.76,2.26,2.26,0,0,1,.76-.49,2.5,2.5,0,0,1,1-.18,1.92,1.92,0,0,1,1,.19,1.48,1.48,0,0,1,.5.46l.06-.3a.34.34,0,0,1,.11-.18.28.28,0,0,1,.19-.07h1a.18.18,0,0,1,.16.07.22.22,0,0,1,0,.18l-1,4.78a.32.32,0,0,1-.1.19.32.32,0,0,1-.19.07h-1a.24.24,0,0,1-.17-.07.24.24,0,0,1,0-.19l.07-.34a2.93,2.93,0,0,1-.67.5A2.09,2.09,0,0,1,109,58.94Zm.58-1.22a1.24,1.24,0,0,0,.66-.17,1.39,1.39,0,0,0,.43-.44,1.8,1.8,0,0,0,.25-.57c0-.13.07-.26.1-.39s0-.25.07-.37a1.63,1.63,0,0,0,0-.54.82.82,0,0,0-.24-.41.83.83,0,0,0-.56-.16,1,1,0,0,0-.61.17,1.16,1.16,0,0,0-.41.44,2.32,2.32,0,0,0-.26.6c0,.1,0,.2-.08.31a2,2,0,0,0-.06.32,3.11,3.11,0,0,0,0,.6.72.72,0,0,0,.2.44A.75.75,0,0,0,109.6,57.72Z"/><path class="cls-2" d="M115.57,58.84a.22.22,0,0,1-.16-.07.21.21,0,0,1,0-.19L116.78,52a.29.29,0,0,1,.11-.18.28.28,0,0,1,.19-.07h1.14a.2.2,0,0,1,.16.07.22.22,0,0,1,0,.18l-1.18,5.5h3.15a.2.2,0,0,1,.17.08.21.21,0,0,1,0,.18l-.19.85a.32.32,0,0,1-.1.19.32.32,0,0,1-.19.07Z"/><path class="cls-2" d="M123.06,58.94a2.16,2.16,0,0,1-.88-.17,1.35,1.35,0,0,1-.59-.49,1.76,1.76,0,0,1-.27-.76,3,3,0,0,1,0-1,2.7,2.7,0,0,1,.07-.35c0-.11,0-.22.07-.34a4.64,4.64,0,0,1,.36-1,3,3,0,0,1,.55-.76,2.26,2.26,0,0,1,.76-.49,2.47,2.47,0,0,1,1-.18,1.85,1.85,0,0,1,.95.19,1.43,1.43,0,0,1,.51.46l.06-.3a.34.34,0,0,1,.11-.18.28.28,0,0,1,.19-.07h1a.19.19,0,0,1,.17.07.22.22,0,0,1,0,.18l-1,4.78a.32.32,0,0,1-.1.19.34.34,0,0,1-.19.07h-1a.22.22,0,0,1-.17-.07.2.2,0,0,1,0-.19l.07-.34a3.16,3.16,0,0,1-.67.5A2.09,2.09,0,0,1,123.06,58.94Zm.58-1.22a1.18,1.18,0,0,0,.65-.17,1.42,1.42,0,0,0,.44-.44,2.06,2.06,0,0,0,.25-.57,2.74,2.74,0,0,0,.09-.39c0-.13.05-.25.07-.37a1.23,1.23,0,0,0,0-.54.73.73,0,0,0-.23-.41.83.83,0,0,0-.56-.16,1,1,0,0,0-.61.17,1.27,1.27,0,0,0-.42.44,2.7,2.7,0,0,0-.25.6c0,.1,0,.2-.08.31a2,2,0,0,0-.06.32,3.11,3.11,0,0,0,0,.6.72.72,0,0,0,.2.44A.75.75,0,0,0,123.64,57.72Z"/><path class="cls-2" d="M130,58.84a2.5,2.5,0,0,1-1.11-.21,1.06,1.06,0,0,1-.56-.65,2.25,2.25,0,0,1,0-1.1l.46-2.13H128a.18.18,0,0,1-.16-.07.24.24,0,0,1,0-.19l.14-.69a.34.34,0,0,1,.11-.18.32.32,0,0,1,.2-.07h.8l.36-1.68a.32.32,0,0,1,.1-.18.31.31,0,0,1,.2-.07h1a.19.19,0,0,1,.16.07.19.19,0,0,1,0,.18l-.36,1.68h1.27a.18.18,0,0,1,.16.07.27.27,0,0,1,0,.18l-.14.69a.33.33,0,0,1-.11.19.29.29,0,0,1-.2.07h-1.27l-.43,2a2.68,2.68,0,0,0,0,.45.36.36,0,0,0,.1.28.58.58,0,0,0,.37.1h.77a.18.18,0,0,1,.16.07.2.2,0,0,1,0,.17l-.16.75a.33.33,0,0,1-.11.19.29.29,0,0,1-.19.07Z"/><path class="cls-2" d="M132.25,58.84a.22.22,0,0,1-.16-.07.21.21,0,0,1,0-.19l1-4.78a.36.36,0,0,1,.12-.18.28.28,0,0,1,.19-.07h1a.18.18,0,0,1,.16.07.27.27,0,0,1,0,.18l-1,4.78a.27.27,0,0,1-.1.19.32.32,0,0,1-.19.07Zm1.27-6.1a.18.18,0,0,1-.16-.08.21.21,0,0,1,0-.18l.17-.81a.33.33,0,0,1,.11-.19.3.3,0,0,1,.2-.08h1.07a.18.18,0,0,1,.16.08.24.24,0,0,1,0,.19l-.18.81a.25.25,0,0,1-.11.18.29.29,0,0,1-.19.08Z"/><path class="cls-2" d="M135.18,58.84a.22.22,0,0,1-.16-.07.21.21,0,0,1,0-.19l1-4.78a.31.31,0,0,1,.12-.18.28.28,0,0,1,.19-.07h1a.19.19,0,0,1,.16.07.27.27,0,0,1,0,.18l-.08.4a2.49,2.49,0,0,1,.76-.54,2.26,2.26,0,0,1,1-.21,1.94,1.94,0,0,1,1.08.27,1.37,1.37,0,0,1,.56.78,2.51,2.51,0,0,1,0,1.25l-.61,2.83a.32.32,0,0,1-.1.19.37.37,0,0,1-.2.07h-1.08a.22.22,0,0,1-.16-.07.21.21,0,0,1,0-.19l.59-2.77a1.33,1.33,0,0,0,0-.86c-.1-.19-.32-.28-.67-.28a1.32,1.32,0,0,0-.88.3,1.47,1.47,0,0,0-.48.84l-.59,2.77a.32.32,0,0,1-.1.19.34.34,0,0,1-.19.07Z"/><path class="cls-2" d="M143.49,58.94a2.16,2.16,0,0,1-.88-.17,1.35,1.35,0,0,1-.59-.49,1.91,1.91,0,0,1-.28-.76,3.28,3.28,0,0,1,0-1,2.7,2.7,0,0,1,.07-.35c0-.11,0-.22.07-.34a4.64,4.64,0,0,1,.36-1,3,3,0,0,1,.55-.76,2.16,2.16,0,0,1,.76-.49,2.47,2.47,0,0,1,1-.18,1.85,1.85,0,0,1,.95.19,1.43,1.43,0,0,1,.51.46l.06-.3a.34.34,0,0,1,.11-.18.28.28,0,0,1,.19-.07h1a.19.19,0,0,1,.17.07.22.22,0,0,1,0,.18l-1,4.78a.32.32,0,0,1-.1.19.35.35,0,0,1-.2.07h-1a.22.22,0,0,1-.17-.07.24.24,0,0,1,0-.19l.08-.34a3,3,0,0,1-.68.5A2,2,0,0,1,143.49,58.94Zm.58-1.22a1.21,1.21,0,0,0,.65-.17,1.42,1.42,0,0,0,.44-.44,2.06,2.06,0,0,0,.25-.57l.09-.39c0-.13.05-.25.07-.37a1.23,1.23,0,0,0,0-.54.7.7,0,0,0-.24-.41.8.8,0,0,0-.55-.16,1,1,0,0,0-.61.17,1.27,1.27,0,0,0-.42.44,2.3,2.3,0,0,0-.25.6,2.81,2.81,0,0,0-.08.31,2,2,0,0,0-.06.32,2.47,2.47,0,0,0,0,.6.67.67,0,0,0,.2.44A.73.73,0,0,0,144.07,57.72Z"/><path class="cls-2" d="M149.56,60.77a.15.15,0,0,1-.16-.11.21.21,0,0,1,0-.22l1.24-1.95-1-4.65a.24.24,0,0,1,0-.2.24.24,0,0,1,.22-.09h.92a.24.24,0,0,1,.18.06.2.2,0,0,1,.06.14l.63,3.16,2-3.16a.57.57,0,0,1,.13-.14.32.32,0,0,1,.2-.06h1a.16.16,0,0,1,.16.09.18.18,0,0,1,0,.21l-4.33,6.72a.53.53,0,0,1-.12.14.35.35,0,0,1-.21.06Z"/><path class="cls-2" d="M158.6,58.94a2.62,2.62,0,0,1-1.29-.29,1.52,1.52,0,0,1-.71-.86,3,3,0,0,1,0-1.39c0-.06,0-.13,0-.22a1.88,1.88,0,0,1,.05-.22,3.84,3.84,0,0,1,.64-1.35,2.89,2.89,0,0,1,1.07-.86,3.23,3.23,0,0,1,1.4-.3,2.2,2.2,0,0,1,1.34.35,1.66,1.66,0,0,1,.66,1,3,3,0,0,1,0,1.39l0,.24a.3.3,0,0,1-.11.17.31.31,0,0,1-.21.07h-3.31a.08.08,0,0,1,0,0,.06.06,0,0,1,0,0,1.51,1.51,0,0,0,0,.6.69.69,0,0,0,.24.43.71.71,0,0,0,.49.16,1.14,1.14,0,0,0,.43-.07,1.31,1.31,0,0,0,.31-.17l.2-.18a.6.6,0,0,1,.17-.12.42.42,0,0,1,.18,0h1.06a.18.18,0,0,1,.15.06s0,.09,0,.16a1,1,0,0,1-.25.4,2.77,2.77,0,0,1-.56.47,4.09,4.09,0,0,1-.84.38A3.59,3.59,0,0,1,158.6,58.94Zm-.31-3.24h2v0a1.24,1.24,0,0,0,0-.63.71.71,0,0,0-.26-.42.76.76,0,0,0-.51-.16,1,1,0,0,0-.57.16,1.21,1.21,0,0,0-.42.42,2.25,2.25,0,0,0-.26.63Z"/><path class="cls-2" d="M162.53,58.84a.22.22,0,0,1-.16-.07.21.21,0,0,1-.05-.19l1.44-6.71a.29.29,0,0,1,.11-.18.26.26,0,0,1,.18-.07h1a.19.19,0,0,1,.17.07.19.19,0,0,1,0,.18l-1.43,6.71a.32.32,0,0,1-.1.19.35.35,0,0,1-.2.07Z"/><path class="cls-2" d="M169.91,58.94a3.9,3.9,0,0,1-1.24-.18,2.28,2.28,0,0,1-.88-.53,2,2,0,0,1-.48-.87,2.89,2.89,0,0,1,0-1.18c.05-.28.11-.57.18-.89s.14-.63.21-.92a4.34,4.34,0,0,1,.67-1.49,3,3,0,0,1,1.16-.94,4.57,4.57,0,0,1,2.88-.16,2.78,2.78,0,0,1,.92.49,1.94,1.94,0,0,1,.53.77,1.91,1.91,0,0,1,0,1,.21.21,0,0,1-.07.15.25.25,0,0,1-.16.06h-1.18a.27.27,0,0,1-.19-.06.34.34,0,0,1-.08-.2.88.88,0,0,0-.29-.82,1.42,1.42,0,0,0-.84-.23,1.73,1.73,0,0,0-1.09.34,1.9,1.9,0,0,0-.65,1.15c-.15.56-.27,1.13-.37,1.71a1.44,1.44,0,0,0,.14,1.15,1.11,1.11,0,0,0,.91.35,2,2,0,0,0,.95-.23,1.69,1.69,0,0,0,.69-.82.63.63,0,0,1,.15-.21.31.31,0,0,1,.2,0h1.17a.2.2,0,0,1,.15.06.14.14,0,0,1,0,.15,3.24,3.24,0,0,1-.42,1,2.93,2.93,0,0,1-.72.77,3.41,3.41,0,0,1-1,.5A4.71,4.71,0,0,1,169.91,58.94Z"/><path class="cls-2" d="M176.06,58.94a2.16,2.16,0,0,1-.88-.17,1.35,1.35,0,0,1-.59-.49,1.76,1.76,0,0,1-.27-.76,3,3,0,0,1,0-1,2.7,2.7,0,0,1,.07-.35c0-.11.05-.22.07-.34a4.64,4.64,0,0,1,.36-1,3,3,0,0,1,.55-.76,2.26,2.26,0,0,1,.76-.49,2.47,2.47,0,0,1,1-.18,1.85,1.85,0,0,1,.95.19,1.43,1.43,0,0,1,.51.46l.06-.3a.34.34,0,0,1,.11-.18.28.28,0,0,1,.19-.07h1a.19.19,0,0,1,.17.07.22.22,0,0,1,0,.18l-1,4.78a.32.32,0,0,1-.1.19.34.34,0,0,1-.19.07h-1a.22.22,0,0,1-.17-.07.2.2,0,0,1,0-.19l.07-.34a3.16,3.16,0,0,1-.67.5A2.09,2.09,0,0,1,176.06,58.94Zm.58-1.22a1.18,1.18,0,0,0,.65-.17,1.42,1.42,0,0,0,.44-.44,2.06,2.06,0,0,0,.25-.57,2.74,2.74,0,0,0,.09-.39c0-.13.05-.25.07-.37a1.23,1.23,0,0,0,0-.54.73.73,0,0,0-.23-.41.83.83,0,0,0-.56-.16,1,1,0,0,0-.61.17,1.27,1.27,0,0,0-.42.44,2.7,2.7,0,0,0-.25.6c0,.1,0,.2-.08.31a2,2,0,0,0-.06.32,3.11,3.11,0,0,0,0,.6.72.72,0,0,0,.2.44A.75.75,0,0,0,176.64,57.72Z"/><path class="cls-2" d="M180.7,58.84a.24.24,0,0,1-.17-.07.24.24,0,0,1,0-.19l1-4.78a.3.3,0,0,1,.11-.17.26.26,0,0,1,.19-.08h1a.17.17,0,0,1,.16.08.17.17,0,0,1,0,.17l-.08.41a1.85,1.85,0,0,1,.62-.48,2.08,2.08,0,0,1,.91-.18H185a.17.17,0,0,1,.15.07.22.22,0,0,1,0,.18l-.19.88a.34.34,0,0,1-.11.18.28.28,0,0,1-.19.07h-.88a1.18,1.18,0,0,0-.76.25,1.25,1.25,0,0,0-.4.71l-.58,2.69a.33.33,0,0,1-.11.19.35.35,0,0,1-.2.07Z"/><path class="cls-2" d="M185.25,58.84a.22.22,0,0,1-.16-.07.24.24,0,0,1,0-.19l1-4.78a.29.29,0,0,1,.11-.18.28.28,0,0,1,.19-.07h1a.18.18,0,0,1,.16.07.27.27,0,0,1,0,.18l-1,4.78a.27.27,0,0,1-.1.19.32.32,0,0,1-.19.07Zm1.27-6.1a.18.18,0,0,1-.16-.08.21.21,0,0,1,0-.18l.17-.81a.33.33,0,0,1,.11-.19.3.3,0,0,1,.2-.08h1.07a.18.18,0,0,1,.16.08.24.24,0,0,1,0,.19l-.18.81a.22.22,0,0,1-.11.18.29.29,0,0,1-.19.08Z"/><path class="cls-2" d="M191,58.94a2.13,2.13,0,0,1-1-.2,1.29,1.29,0,0,1-.55-.5l-.08.34a.33.33,0,0,1-.11.19.34.34,0,0,1-.19.07h-1a.22.22,0,0,1-.16-.07.24.24,0,0,1,0-.19l1.43-6.71a.32.32,0,0,1,.1-.18.31.31,0,0,1,.2-.07h1a.19.19,0,0,1,.16.07.22.22,0,0,1,0,.18l-.46,2.22a2.35,2.35,0,0,1,.67-.46,2,2,0,0,1,.88-.18,2.07,2.07,0,0,1,.9.17,1.43,1.43,0,0,1,.59.49,1.79,1.79,0,0,1,.29.75,2.84,2.84,0,0,1,0,1c0,.13,0,.25-.07.37s0,.24-.08.37a4,4,0,0,1-.54,1.26,2.49,2.49,0,0,1-.86.82A2.34,2.34,0,0,1,191,58.94Zm-.28-1.22a1.2,1.2,0,0,0,.64-.17,1.36,1.36,0,0,0,.42-.44,2.72,2.72,0,0,0,.26-.6,3,3,0,0,0,.09-.32,1.76,1.76,0,0,0,0-.31,2.05,2.05,0,0,0,0-.6.65.65,0,0,0-.2-.44.75.75,0,0,0-.57-.17,1.18,1.18,0,0,0-.63.16,1.52,1.52,0,0,0-.46.41,1.89,1.89,0,0,0-.25.54,2.22,2.22,0,0,0-.09.37,2.63,2.63,0,0,0-.06.39,1.57,1.57,0,0,0,0,.57.74.74,0,0,0,.24.44A.81.81,0,0,0,190.76,57.72Z"/><path class="cls-2" d="M196.79,58.94a2.61,2.61,0,0,1-1.28-.29,1.48,1.48,0,0,1-.71-.86,2.76,2.76,0,0,1-.05-1.39c0-.06,0-.13,0-.22a1.62,1.62,0,0,1,.06-.22,3.84,3.84,0,0,1,.64-1.35,2.86,2.86,0,0,1,1.06-.86,3.26,3.26,0,0,1,1.4-.3,2.25,2.25,0,0,1,1.35.35,1.66,1.66,0,0,1,.66,1,3.25,3.25,0,0,1,0,1.39l-.05.24a.3.3,0,0,1-.11.17.31.31,0,0,1-.2.07h-3.32v0a.08.08,0,0,1,0,0,2,2,0,0,0,0,.6.8.8,0,0,0,.24.43.73.73,0,0,0,.5.16,1.09,1.09,0,0,0,.42-.07,1,1,0,0,0,.31-.17,2,2,0,0,0,.2-.18.78.78,0,0,1,.17-.12.47.47,0,0,1,.19,0h1.06a.2.2,0,0,1,.15.06.17.17,0,0,1,0,.16,1.18,1.18,0,0,1-.25.4,2.85,2.85,0,0,1-.57.47,3.77,3.77,0,0,1-.83.38A3.66,3.66,0,0,1,196.79,58.94Zm-.3-3.24h2v0a1.38,1.38,0,0,0,0-.63.74.74,0,0,0-.77-.58,1,1,0,0,0-.57.16,1.21,1.21,0,0,0-.42.42,2,2,0,0,0-.26.63Z"/></svg>