<svg id="Layer_1" data-name="Layer 1" xmlns="http://www.w3.org/2000/svg" width="292" height="68" viewBox="0 0 292 68"><defs><style>.cls-1{fill:#4c8c1e;}.cls-2{fill:#666;}</style></defs><path class="cls-1" d="M32,33.38c0-9.75,4.76-18.2,18.93-18.2C51,25,44.52,33.38,32,33.38"/><path class="cls-1" d="M54.72,59a18.7,18.7,0,0,0,6.79-1.15c0-7.72-4.61-13.24-12.74-17.21A48.09,48.09,0,0,0,27.89,35.9C31,26.69,28.72,15.27,25.74,9c-3.29,6.57-5.34,17.83-2.18,27-6.21.45-11.13,3.16-13.22,6.73-.16.27-.47.85-.28,1s.39-.17.54-.3a11.9,11.9,0,0,1,8.06-3.09c6.59,0,11.25,5.47,14.53,8.75,7.07,7.07,14,10,21.53,10"/><path d="M82,22.74,78.51,24.5a1.38,1.38,0,0,1-.51.21c-.13,0-.26-.08-.35-.3-.77-1.84-1.89-2.53-3.05-2.53H71.77A3.13,3.13,0,0,0,68.68,25V37.68a3.12,3.12,0,0,0,3.09,3.09h2.1a3,3,0,0,0,3-3.09v-2c0-.3-.13-.43-.43-.43h-4c-.3,0-.43-.12-.43-.43V31.15c0-.3.13-.43.43-.43h9c.3,0,.43.13.43.43v6.53c0,4.47-3.13,7.6-8,7.6h-2.1c-4.9,0-8-3.13-8-7.6V25c0-4.47,3.09-7.6,8-7.6H74.6c3.57,0,5.5,1.46,6.79,3.48a5.82,5.82,0,0,1,.81,1.59C82.2,22.57,82.12,22.65,82,22.74Z"/><path d="M95.6,44.85H85.94c-.3,0-.43-.13-.43-.43V18.23c0-.3.13-.43.43-.43H95.6c4.9,0,8,3.13,8,8v.43a7.16,7.16,0,0,1-2.27,4.63.39.39,0,0,0-.18.3.37.37,0,0,0,.18.3,7.7,7.7,0,0,1,2.27,4.86V37C103.59,41.8,100.5,44.85,95.6,44.85ZM98.7,25.4a3.13,3.13,0,0,0-3.1-3.09H90.88c-.3,0-.43.13-.43.43v5.71c0,.3.13.43.43.43H95.6a3.14,3.14,0,0,0,3.1-3.09Zm0,11a3,3,0,0,0-3.1-3H90.88c-.3,0-.43.13-.43.43v6.1c0,.3.13.42.43.42H95.6a3.08,3.08,0,0,0,3.1-3.09Z"/><path d="M112.18,44.85H108.1c-.3,0-.43-.13-.43-.43V18.23c0-.3.13-.43.43-.43h4.08c.3,0,.43.13.43.43V44.42C112.61,44.72,112.48,44.85,112.18,44.85Z"/><path d="M133.61,22.31H123.39c-.3,0-.43.13-.43.43v5.71c0,.3.13.43.43.43h8.38c.3,0,.42.13.42.43V33c0,.3-.12.43-.42.43h-8.38c-.3,0-.43.13-.43.43v10.6c0,.3-.13.43-.43.43h-4.08c-.3,0-.43-.13-.43-.43V18.23c0-.3.13-.43.43-.43h15.16c.3,0,.43.13.43.43v3.65C134,22.18,133.91,22.31,133.61,22.31Z"/><path class="cls-2" d="M70.65,59a.17.17,0,0,1-.17-.1.2.2,0,0,1,0-.2l3.81-6.57a.61.61,0,0,1,.17-.19.43.43,0,0,1,.27-.08h1.37a.29.29,0,0,1,.23.08.34.34,0,0,1,.09.19l1,6.57a.3.3,0,0,1,0,.22.26.26,0,0,1-.19.08h-1a.25.25,0,0,1-.21-.07.35.35,0,0,1-.08-.16l-.21-1.12H72.82l-.68,1.15a.8.8,0,0,1-.13.13.33.33,0,0,1-.23.07Zm2.84-2.66H75.6l-.44-2.94Z"/><path class="cls-2" d="M78.52,59a.2.2,0,0,1-.16-.07.22.22,0,0,1,0-.18l1-4.8a.27.27,0,0,1,.11-.18.31.31,0,0,1,.2-.07h.95a.17.17,0,0,1,.15.07.21.21,0,0,1,0,.18l-.07.35a2.57,2.57,0,0,1,.39-.35,1.53,1.53,0,0,1,.49-.26,2.18,2.18,0,0,1,.66-.1,1.75,1.75,0,0,1,1,.24,1.22,1.22,0,0,1,.52.66,2.86,2.86,0,0,1,.74-.65,2,2,0,0,1,1-.25,1.79,1.79,0,0,1,1,.24,1.3,1.3,0,0,1,.57.74,2.46,2.46,0,0,1,0,1.27l-.62,2.91a.29.29,0,0,1-.11.18.26.26,0,0,1-.18.07h-1a.21.21,0,0,1-.17-.07.22.22,0,0,1,0-.18l.61-2.83a1.53,1.53,0,0,0,0-.66.53.53,0,0,0-.22-.34.77.77,0,0,0-.42-.1,1.11,1.11,0,0,0-.44.1,1.22,1.22,0,0,0-.43.34,1.43,1.43,0,0,0-.27.66l-.61,2.83a.34.34,0,0,1-.11.18.26.26,0,0,1-.19.07h-1a.21.21,0,0,1-.17-.07.19.19,0,0,1,0-.18l.6-2.83a1.53,1.53,0,0,0,0-.66.54.54,0,0,0-.23-.34.74.74,0,0,0-.4-.1,1,1,0,0,0-.45.1,1.28,1.28,0,0,0-.43.35,1.58,1.58,0,0,0-.28.64l-.6,2.84a.29.29,0,0,1-.11.18.26.26,0,0,1-.18.07Z"/><path class="cls-2" d="M90.07,59.1a2.56,2.56,0,0,1-1.29-.29,1.52,1.52,0,0,1-.71-.86,2.92,2.92,0,0,1,0-1.4,1.88,1.88,0,0,0,0-.22,1,1,0,0,1,.05-.22,3.84,3.84,0,0,1,.64-1.35,2.9,2.9,0,0,1,1.07-.87,3.3,3.3,0,0,1,1.41-.3,2.25,2.25,0,0,1,1.35.36,1.66,1.66,0,0,1,.66.95,3.29,3.29,0,0,1,0,1.4l0,.23a.36.36,0,0,1-.12.18.37.37,0,0,1-.2.07H89.56v0s0,0,0,0a2,2,0,0,0,0,.6.8.8,0,0,0,.24.43.73.73,0,0,0,.5.16,1.18,1.18,0,0,0,.43-.07,1.31,1.31,0,0,0,.31-.17l.2-.18a.6.6,0,0,1,.17-.12.42.42,0,0,1,.18,0h1.06a.21.21,0,0,1,.16.06.17.17,0,0,1,0,.16,1.18,1.18,0,0,1-.25.4,2.85,2.85,0,0,1-.57.47,3.52,3.52,0,0,1-1.92.53Zm-.3-3.25h2v0a1.28,1.28,0,0,0,0-.64.71.71,0,0,0-.26-.42.76.76,0,0,0-.51-.16,1,1,0,0,0-.57.16,1.21,1.21,0,0,0-.42.42,2,2,0,0,0-.26.64Zm1-2.92c-.11,0-.16,0-.14-.16a.34.34,0,0,1,.09-.14l1.09-1.05a.84.84,0,0,1,.21-.15.41.41,0,0,1,.21,0h1.17q.18,0,.15.18a.17.17,0,0,1-.08.15L92,52.79a1.18,1.18,0,0,1-.19.1.48.48,0,0,1-.22,0Z"/><path class="cls-2" d="M94,59a.21.21,0,0,1-.17-.07.22.22,0,0,1,0-.18l1-4.8a.31.31,0,0,1,.12-.18.28.28,0,0,1,.19-.07h1a.19.19,0,0,1,.16.07.22.22,0,0,1,0,.18l-.08.41a1.75,1.75,0,0,1,.62-.49,2.08,2.08,0,0,1,.91-.17h.54a.19.19,0,0,1,.16.07.21.21,0,0,1,0,.18l-.2.88a.32.32,0,0,1-.1.18.3.3,0,0,1-.19.07h-.89a1.18,1.18,0,0,0-.76.25A1.22,1.22,0,0,0,96,56l-.59,2.71a.27.27,0,0,1-.1.18.31.31,0,0,1-.2.07Z"/><path class="cls-2" d="M98.59,59a.19.19,0,0,1-.16-.07.19.19,0,0,1,0-.18l1-4.8a.27.27,0,0,1,.11-.18.28.28,0,0,1,.19-.07h1a.19.19,0,0,1,.17.07.26.26,0,0,1,0,.18l-1,4.8a.34.34,0,0,1-.11.18.26.26,0,0,1-.19.07Zm1.27-6.12a.18.18,0,0,1-.16-.07.24.24,0,0,1,0-.19l.17-.81a.33.33,0,0,1,.11-.19.32.32,0,0,1,.2-.08h1.07a.2.2,0,0,1,.17.08.24.24,0,0,1,0,.19l-.19.81a.24.24,0,0,1-.1.19.3.3,0,0,1-.19.07Z"/><path class="cls-2" d="M104.62,60.94a.19.19,0,0,1-.16-.07.24.24,0,0,1,0-.19l.49-2.28a2.37,2.37,0,0,1-.69.51,1.91,1.91,0,0,1-.89.19,2.07,2.07,0,0,1-.9-.17,1.53,1.53,0,0,1-.6-.49,1.79,1.79,0,0,1-.29-.75,2.83,2.83,0,0,1,0-1,3.25,3.25,0,0,1,.07-.38c0-.12.06-.24.08-.37a4.28,4.28,0,0,1,.54-1.26,2.46,2.46,0,0,1,.87-.83,2.34,2.34,0,0,1,1.21-.3,2,2,0,0,1,1,.21,1.39,1.39,0,0,1,.56.54l.08-.39a.29.29,0,0,1,.1-.18.31.31,0,0,1,.2-.07h1a.19.19,0,0,1,.17.07.26.26,0,0,1,0,.18L106,60.68a.31.31,0,0,1-.32.26Zm-.7-3.06a1.32,1.32,0,0,0,.64-.16,1.51,1.51,0,0,0,.45-.42,1.36,1.36,0,0,0,.25-.53c0-.13.07-.26.1-.39s0-.26.07-.38a1.82,1.82,0,0,0,0-.57.86.86,0,0,0-.24-.44.83.83,0,0,0-.57-.17A1.1,1.1,0,0,0,104,55a1.51,1.51,0,0,0-.43.44,2.72,2.72,0,0,0-.26.6c0,.1,0,.21-.07.32s0,.21-.06.31a2.54,2.54,0,0,0,0,.61.68.68,0,0,0,.21.44A.78.78,0,0,0,103.92,57.88Z"/><path class="cls-2" d="M109.76,59.1a1.92,1.92,0,0,1-1.06-.27,1.43,1.43,0,0,1-.57-.78,2.64,2.64,0,0,1,0-1.25l.61-2.85a.29.29,0,0,1,.1-.18.31.31,0,0,1,.2-.07h1.08a.19.19,0,0,1,.16.07.21.21,0,0,1,0,.18l-.59,2.79a1.85,1.85,0,0,0-.06.63.54.54,0,0,0,.22.38.9.9,0,0,0,.54.13,1.33,1.33,0,0,0,.86-.3,1.47,1.47,0,0,0,.48-.84l.59-2.79a.27.27,0,0,1,.11-.18.3.3,0,0,1,.19-.07h1.09a.18.18,0,0,1,.16.07.26.26,0,0,1,0,.18l-1,4.8a.32.32,0,0,1-.1.18.29.29,0,0,1-.2.07h-1a.18.18,0,0,1-.16-.07.22.22,0,0,1,0-.18l.08-.4a4.36,4.36,0,0,1-.46.41,1.93,1.93,0,0,1-.54.26A3.13,3.13,0,0,1,109.76,59.1Z"/><path class="cls-2" d="M116.71,59.1a2.58,2.58,0,0,1-1.3-.29,1.47,1.47,0,0,1-.7-.86,2.9,2.9,0,0,1-.06-1.4,1.88,1.88,0,0,0,0-.22,2.18,2.18,0,0,1,.06-.22,3.82,3.82,0,0,1,.63-1.35,2.85,2.85,0,0,1,1.08-.87,3.23,3.23,0,0,1,1.4-.3,2.25,2.25,0,0,1,1.35.36,1.66,1.66,0,0,1,.66.95,3,3,0,0,1,0,1.4l0,.23a.34.34,0,0,1-.11.18.4.4,0,0,1-.21.07H116.2a.1.1,0,0,0,0,0,.43.43,0,0,1,0,0,1.51,1.51,0,0,0,0,.6.73.73,0,0,0,.23.43.75.75,0,0,0,.5.16,1.14,1.14,0,0,0,.43-.07,1.31,1.31,0,0,0,.31-.17l.2-.18a.6.6,0,0,1,.17-.12.44.44,0,0,1,.19,0h1.06a.19.19,0,0,1,.15.06.17.17,0,0,1,0,.16,1.18,1.18,0,0,1-.25.4,2.85,2.85,0,0,1-.57.47,3.44,3.44,0,0,1-.84.38A3.59,3.59,0,0,1,116.71,59.1Zm-.31-3.25h2v0a1.28,1.28,0,0,0,0-.64.71.71,0,0,0-.26-.42.73.73,0,0,0-.51-.16,1,1,0,0,0-.57.16,1.21,1.21,0,0,0-.42.42,2.2,2.2,0,0,0-.26.64Z"/><path class="cls-2" d="M122.34,59a.2.2,0,0,1-.16-.07.22.22,0,0,1,0-.18L123.58,52a.29.29,0,0,1,.11-.18.26.26,0,0,1,.18-.07h1a.18.18,0,0,1,.16.07.22.22,0,0,1,0,.18l-1.44,6.74a.32.32,0,0,1-.1.18.29.29,0,0,1-.2.07Z"/><path class="cls-2" d="M127,59.1a2,2,0,0,1-.88-.17,1.34,1.34,0,0,1-.59-.48,1.86,1.86,0,0,1-.28-.77,3,3,0,0,1,0-1l.06-.35c0-.1,0-.22.08-.34a4.64,4.64,0,0,1,.36-1,2.79,2.79,0,0,1,.55-.76,2.34,2.34,0,0,1,.76-.5,2.5,2.5,0,0,1,1-.18,2,2,0,0,1,1,.19,1.45,1.45,0,0,1,.51.47l.06-.3a.31.31,0,0,1,.11-.18.28.28,0,0,1,.19-.07h1a.18.18,0,0,1,.16.07.21.21,0,0,1,0,.18l-1,4.8a.32.32,0,0,1-.1.18.29.29,0,0,1-.2.07h-1a.18.18,0,0,1-.17-.07.22.22,0,0,1,0-.18l.07-.35a2.93,2.93,0,0,1-.67.5A2,2,0,0,1,127,59.1Zm.58-1.22a1.24,1.24,0,0,0,.66-.17,1.54,1.54,0,0,0,.44-.44,2.31,2.31,0,0,0,.25-.58l.09-.38c0-.13,0-.26.07-.38a1.23,1.23,0,0,0,0-.54.7.7,0,0,0-.24-.41.8.8,0,0,0-.55-.16,1,1,0,0,0-.62.17,1.36,1.36,0,0,0-.42.44,2.7,2.7,0,0,0-.25.6c0,.1-.05.21-.08.32a1.88,1.88,0,0,0-.06.31,2.54,2.54,0,0,0,0,.61.72.72,0,0,0,.2.44A.75.75,0,0,0,127.61,57.88Z"/><path class="cls-2" d="M134,59a2.5,2.5,0,0,1-1.11-.21,1,1,0,0,1-.56-.65,2.25,2.25,0,0,1,0-1.1l.46-2.14H132a.21.21,0,0,1-.17-.07.2.2,0,0,1,0-.19L132,54a.27.27,0,0,1,.11-.18.31.31,0,0,1,.2-.07h.8l.36-1.69a.29.29,0,0,1,.11-.18.26.26,0,0,1,.19-.07h1a.21.21,0,0,1,.17.07.22.22,0,0,1,0,.18l-.37,1.69h1.28a.18.18,0,0,1,.16.07.26.26,0,0,1,0,.18l-.14.69a.33.33,0,0,1-.11.19.29.29,0,0,1-.2.07h-1.27l-.43,2a2,2,0,0,0-.06.44.38.38,0,0,0,.1.29.6.6,0,0,0,.38.1h.77a.19.19,0,0,1,.16.07.2.2,0,0,1,0,.17l-.17.76a.32.32,0,0,1-.1.18.26.26,0,0,1-.19.07Z"/><path class="cls-2" d="M136.25,59a.19.19,0,0,1-.16-.07.19.19,0,0,1,0-.18l1-4.8a.27.27,0,0,1,.11-.18.3.3,0,0,1,.19-.07h1a.19.19,0,0,1,.17.07.26.26,0,0,1,0,.18l-1,4.8a.4.4,0,0,1-.1.18.29.29,0,0,1-.2.07Zm1.28-6.12a.19.19,0,0,1-.17-.07.24.24,0,0,1,0-.19l.18-.81a.31.31,0,0,1,.3-.27h1.07a.19.19,0,0,1,.17.08.24.24,0,0,1,0,.19l-.19.81a.24.24,0,0,1-.1.19.28.28,0,0,1-.19.07Z"/><path class="cls-2" d="M139.19,59a.19.19,0,0,1-.16-.07.19.19,0,0,1,0-.18l1-4.8a.27.27,0,0,1,.11-.18.28.28,0,0,1,.19-.07h1a.19.19,0,0,1,.17.07.26.26,0,0,1,0,.18l-.09.4a2.76,2.76,0,0,1,.76-.54,2.23,2.23,0,0,1,1-.22,2,2,0,0,1,1.09.27,1.39,1.39,0,0,1,.56.79,2.64,2.64,0,0,1,0,1.25l-.61,2.85a.29.29,0,0,1-.11.18.27.27,0,0,1-.2.07h-1.08a.2.2,0,0,1-.16-.07.22.22,0,0,1,0-.18l.59-2.79a1.41,1.41,0,0,0,0-.86c-.1-.19-.33-.28-.68-.28a1.37,1.37,0,0,0-.89.3,1.4,1.4,0,0,0-.47.84l-.59,2.79a.34.34,0,0,1-.11.18.28.28,0,0,1-.19.07Z"/><path class="cls-2" d="M147.92,59.1a2.51,2.51,0,0,1-1.29-.29,1.48,1.48,0,0,1-.71-.86,2.8,2.8,0,0,1,0-1.4s0-.13,0-.22a2.18,2.18,0,0,1,.06-.22,3.67,3.67,0,0,1,.64-1.35,2.82,2.82,0,0,1,1.07-.87,3.23,3.23,0,0,1,1.4-.3,2.25,2.25,0,0,1,1.35.36,1.66,1.66,0,0,1,.66.95,3,3,0,0,1,0,1.4l0,.23a.29.29,0,0,1-.11.18.38.38,0,0,1-.21.07h-3.32a0,0,0,0,1,0,0,.43.43,0,0,1,0,0,1.51,1.51,0,0,0,0,.6.69.69,0,0,0,.24.43.71.71,0,0,0,.49.16,1.17,1.17,0,0,0,.74-.24,2,2,0,0,0,.2-.18.6.6,0,0,1,.17-.12.47.47,0,0,1,.19,0h1.06a.18.18,0,0,1,.15.06s0,.09,0,.16a1.18,1.18,0,0,1-.25.4,3.07,3.07,0,0,1-.56.47A3.51,3.51,0,0,1,149,59,3.59,3.59,0,0,1,147.92,59.1Zm-.31-3.25h2v0a1.42,1.42,0,0,0,0-.64.74.74,0,0,0-.77-.58,1.08,1.08,0,0,0-.58.16,1.3,1.3,0,0,0-.42.42,2.2,2.2,0,0,0-.26.64Z"/><path class="cls-2" d="M155.63,59.1a2.56,2.56,0,0,1-1.29-.29,1.52,1.52,0,0,1-.71-.86,2.92,2.92,0,0,1,0-1.4,1.88,1.88,0,0,0,0-.22c0-.09,0-.16.05-.22a3.84,3.84,0,0,1,.64-1.35,2.9,2.9,0,0,1,1.07-.87,3.3,3.3,0,0,1,1.41-.3,2.25,2.25,0,0,1,1.35.36,1.66,1.66,0,0,1,.66.95,3,3,0,0,1,0,1.4l0,.23a.31.31,0,0,1-.12.18.37.37,0,0,1-.2.07h-3.33v0s0,0,0,0a2,2,0,0,0,0,.6.8.8,0,0,0,.24.43.73.73,0,0,0,.5.16,1.18,1.18,0,0,0,.43-.07,1.31,1.31,0,0,0,.31-.17l.2-.18a.6.6,0,0,1,.17-.12.42.42,0,0,1,.18,0h1.06a.21.21,0,0,1,.16.06.17.17,0,0,1,0,.16,1.18,1.18,0,0,1-.25.4,2.85,2.85,0,0,1-.57.47,3.52,3.52,0,0,1-1.92.53Zm-.3-3.25h2v0a1.28,1.28,0,0,0,0-.64.71.71,0,0,0-.26-.42.76.76,0,0,0-.51-.16,1,1,0,0,0-.57.16,1.21,1.21,0,0,0-.42.42,2.2,2.2,0,0,0-.26.64Z"/><path class="cls-2" d="M161.81,59a2.51,2.51,0,0,1-1.12-.21,1,1,0,0,1-.55-.65,2.24,2.24,0,0,1,0-1.1l.46-2.14h-.79a.19.19,0,0,1-.17-.07.24.24,0,0,1,0-.19l.15-.69a.27.27,0,0,1,.11-.18.28.28,0,0,1,.19-.07h.81L161.2,52a.34.34,0,0,1,.11-.18.31.31,0,0,1,.2-.07h1a.19.19,0,0,1,.16.07.19.19,0,0,1,0,.18l-.36,1.69h1.27a.19.19,0,0,1,.17.07.26.26,0,0,1,0,.18l-.15.69a.32.32,0,0,1-.1.19.31.31,0,0,1-.2.07h-1.28l-.43,2a2.69,2.69,0,0,0,0,.44.35.35,0,0,0,.1.29.58.58,0,0,0,.37.1h.78a.19.19,0,0,1,.16.07.2.2,0,0,1,0,.17l-.16.76a.4.4,0,0,1-.1.18.29.29,0,0,1-.2.07Z"/><path class="cls-2" d="M168.58,59.1a3.88,3.88,0,0,1-1.23-.18,2,2,0,0,1-.89-.53,2,2,0,0,1-.48-.87,2.73,2.73,0,0,1,0-1.18q.07-.42.18-.9c.07-.32.14-.63.21-.92A4.17,4.17,0,0,1,167,53a3,3,0,0,1,1.16-1,4.09,4.09,0,0,1,1.68-.32,3.89,3.89,0,0,1,1.21.17,2.47,2.47,0,0,1,.91.48,1.87,1.87,0,0,1,.54.77,1.92,1.92,0,0,1,.05,1,.26.26,0,0,1-.07.16.25.25,0,0,1-.16.06h-1.19a.29.29,0,0,1-.19-.06.29.29,0,0,1-.07-.21.88.88,0,0,0-.29-.81,1.41,1.41,0,0,0-.86-.24,1.78,1.78,0,0,0-1.09.35,2,2,0,0,0-.65,1.15c-.14.56-.26,1.13-.37,1.72a1.44,1.44,0,0,0,.15,1.15,1.1,1.1,0,0,0,.9.35,2,2,0,0,0,1-.23,1.74,1.74,0,0,0,.69-.82.41.41,0,0,1,.16-.21.29.29,0,0,1,.19-.06h1.18a.17.17,0,0,1,.18.22,3.38,3.38,0,0,1-.43,1,2.93,2.93,0,0,1-.72.77,3.18,3.18,0,0,1-1,.5A4.38,4.38,0,0,1,168.58,59.1Z"/><path class="cls-2" d="M174.76,59.1a2.05,2.05,0,0,1-.89-.17,1.31,1.31,0,0,1-.58-.48,1.73,1.73,0,0,1-.28-.77,3,3,0,0,1,0-1c0-.12,0-.24.07-.35s.05-.22.07-.34a4.64,4.64,0,0,1,.36-1,3,3,0,0,1,.55-.76,2.45,2.45,0,0,1,.76-.5,2.55,2.55,0,0,1,1-.18,2,2,0,0,1,1,.19,1.65,1.65,0,0,1,.51.47l.06-.3a.29.29,0,0,1,.1-.18.3.3,0,0,1,.19-.07h1a.19.19,0,0,1,.17.07.21.21,0,0,1,0,.18l-1,4.8a.34.34,0,0,1-.11.18.25.25,0,0,1-.19.07h-1a.21.21,0,0,1-.17-.07.22.22,0,0,1,0-.18l.07-.35a3.16,3.16,0,0,1-.67.5A2,2,0,0,1,174.76,59.1Zm.58-1.22a1.24,1.24,0,0,0,.66-.17,1.5,1.5,0,0,0,.43-.44,1.76,1.76,0,0,0,.25-.58c0-.12.07-.25.1-.38s.05-.26.07-.38a1.63,1.63,0,0,0,0-.54.82.82,0,0,0-.24-.41.83.83,0,0,0-.56-.16,1,1,0,0,0-.61.17,1.36,1.36,0,0,0-.42.44,2.3,2.3,0,0,0-.25.6l-.09.32-.06.31a3.14,3.14,0,0,0,0,.61.63.63,0,0,0,.2.44A.73.73,0,0,0,175.34,57.88Z"/><path class="cls-2" d="M179.41,59a.21.21,0,0,1-.17-.07.22.22,0,0,1,0-.18l1-4.8a.31.31,0,0,1,.12-.18.28.28,0,0,1,.19-.07h1a.19.19,0,0,1,.16.07.22.22,0,0,1,0,.18l-.08.41a1.67,1.67,0,0,1,.62-.49,2.08,2.08,0,0,1,.91-.17h.54a.19.19,0,0,1,.16.07.21.21,0,0,1,0,.18l-.2.88a.32.32,0,0,1-.1.18.3.3,0,0,1-.19.07h-.89a1.18,1.18,0,0,0-.76.25,1.22,1.22,0,0,0-.4.71l-.59,2.71a.32.32,0,0,1-.1.18.31.31,0,0,1-.2.07Z"/><path class="cls-2" d="M185.64,59.1a2,2,0,0,1-.88-.17,1.34,1.34,0,0,1-.59-.48,1.86,1.86,0,0,1-.28-.77,3,3,0,0,1,0-1c0-.12.05-.24.07-.35s.05-.22.08-.34a4.13,4.13,0,0,1,.35-1,3.29,3.29,0,0,1,.55-.76,2.49,2.49,0,0,1,.77-.5,2.47,2.47,0,0,1,1-.18,2,2,0,0,1,1,.19,1.45,1.45,0,0,1,.51.47l.06-.3a.27.27,0,0,1,.11-.18.28.28,0,0,1,.19-.07h1a.18.18,0,0,1,.16.07.21.21,0,0,1,0,.18l-1,4.8a.32.32,0,0,1-.1.18.29.29,0,0,1-.2.07h-1a.18.18,0,0,1-.16-.07.22.22,0,0,1,0-.18l.07-.35a2.93,2.93,0,0,1-.67.5A2,2,0,0,1,185.64,59.1Zm.58-1.22a1.24,1.24,0,0,0,.66-.17,1.67,1.67,0,0,0,.44-.44,2.31,2.31,0,0,0,.25-.58l.09-.38c0-.13.05-.26.07-.38a1.63,1.63,0,0,0,0-.54.7.7,0,0,0-.24-.41.83.83,0,0,0-.56-.16,1,1,0,0,0-.61.17,1.36,1.36,0,0,0-.42.44,2.3,2.3,0,0,0-.25.6,3,3,0,0,0-.08.32,1.88,1.88,0,0,0-.06.31,2.54,2.54,0,0,0,0,.61.67.67,0,0,0,.2.44A.73.73,0,0,0,186.22,57.88Z"/><path class="cls-2" d="M190.29,59a.19.19,0,0,1-.16-.07.19.19,0,0,1,0-.18l1-4.8a.27.27,0,0,1,.11-.18.28.28,0,0,1,.19-.07h1a.19.19,0,0,1,.17.07.26.26,0,0,1,0,.18l-1,4.8a.34.34,0,0,1-.11.18.26.26,0,0,1-.19.07Zm.41-6.23a.21.21,0,0,1-.16-.06.24.24,0,0,1,0-.17l.19-.83a.28.28,0,0,1,.27-.24h.84a.16.16,0,0,1,.15.07.17.17,0,0,1,0,.17l-.17.83a.3.3,0,0,1-.1.17.33.33,0,0,1-.19.06Zm2,0a.18.18,0,0,1-.15-.06.31.31,0,0,1,0-.17l.19-.83a.28.28,0,0,1,.27-.24h.84a.16.16,0,0,1,.15.07.17.17,0,0,1,0,.17l-.17.83a.3.3,0,0,1-.1.17.33.33,0,0,1-.19.06Z"/><path class="cls-2" d="M196.18,59.1a2,2,0,0,1-1-.2,1.29,1.29,0,0,1-.55-.5l-.09.35a.27.27,0,0,1-.1.18.28.28,0,0,1-.19.07h-1a.19.19,0,0,1-.16-.07.19.19,0,0,1,0-.18L194.53,52a.34.34,0,0,1,.11-.18.29.29,0,0,1,.2-.07h1a.19.19,0,0,1,.16.07.19.19,0,0,1,0,.18l-.46,2.23a2.61,2.61,0,0,1,.67-.47,2,2,0,0,1,.89-.18,2.06,2.06,0,0,1,.9.18,1.42,1.42,0,0,1,.59.49A1.79,1.79,0,0,1,199,55a2.84,2.84,0,0,1,0,1l-.06.37-.09.38a4,4,0,0,1-.54,1.26,2.62,2.62,0,0,1-.86.83A2.49,2.49,0,0,1,196.18,59.1Zm-.29-1.22a1.17,1.17,0,0,0,.64-.17,1.36,1.36,0,0,0,.42-.44,3.05,3.05,0,0,0,.27-.61,2.81,2.81,0,0,0,.08-.31,1.92,1.92,0,0,0,0-.32,2.47,2.47,0,0,0,0-.6.72.72,0,0,0-.2-.44.79.79,0,0,0-.58-.17A1.21,1.21,0,0,0,196,55a1.52,1.52,0,0,0-.46.41,1.89,1.89,0,0,0-.25.54,2.34,2.34,0,0,0-.09.38,2.71,2.71,0,0,0-.06.38,1.62,1.62,0,0,0,0,.58.82.82,0,0,0,.23.44A.86.86,0,0,0,195.89,57.88Z"/><path class="cls-2" d="M201.94,59.1a2.56,2.56,0,0,1-1.29-.29,1.52,1.52,0,0,1-.71-.86,2.92,2.92,0,0,1-.05-1.4,1.88,1.88,0,0,0,.05-.22c0-.09,0-.16.05-.22a3.84,3.84,0,0,1,.64-1.35,2.9,2.9,0,0,1,1.07-.87,3.3,3.3,0,0,1,1.41-.3,2.25,2.25,0,0,1,1.35.36,1.66,1.66,0,0,1,.66.95,3,3,0,0,1,0,1.4l0,.23a.31.31,0,0,1-.12.18.37.37,0,0,1-.2.07h-3.33v0s0,0,0,0a2,2,0,0,0,0,.6.8.8,0,0,0,.24.43.73.73,0,0,0,.5.16,1.18,1.18,0,0,0,.43-.07,1.31,1.31,0,0,0,.31-.17l.2-.18a.6.6,0,0,1,.17-.12.42.42,0,0,1,.18,0h1.06a.21.21,0,0,1,.16.06.17.17,0,0,1,0,.16,1.18,1.18,0,0,1-.25.4,2.85,2.85,0,0,1-.57.47,3.52,3.52,0,0,1-1.92.53Zm-.3-3.25h2v0a1.28,1.28,0,0,0,0-.64.71.71,0,0,0-.26-.42.76.76,0,0,0-.51-.16,1,1,0,0,0-.57.16,1.21,1.21,0,0,0-.42.42,2.2,2.2,0,0,0-.26.64Z"/><path class="cls-2" d="M207.76,59.1A3.49,3.49,0,0,1,206.7,59a1.87,1.87,0,0,1-.66-.37,1.23,1.23,0,0,1-.32-.43.79.79,0,0,1-.07-.37.33.33,0,0,1,.11-.19.34.34,0,0,1,.18-.07H207l0,.05a2.19,2.19,0,0,1,.23.21,1,1,0,0,0,.74.28,1.26,1.26,0,0,0,.6-.13.6.6,0,0,0,.32-.4.38.38,0,0,0,0-.3.74.74,0,0,0-.36-.23,6.14,6.14,0,0,0-.83-.22,3,3,0,0,1-.86-.33,1.14,1.14,0,0,1-.47-.51,1.24,1.24,0,0,1,0-.75,1.81,1.81,0,0,1,.41-.77,2.41,2.41,0,0,1,.87-.61,3.14,3.14,0,0,1,1.28-.24,3,3,0,0,1,1,.14,1.94,1.94,0,0,1,.64.35,1.16,1.16,0,0,1,.33.43.61.61,0,0,1,.07.38.23.23,0,0,1-.1.17.27.27,0,0,1-.18.07h-1s0,0-.06,0a1.2,1.2,0,0,1-.21-.19,1,1,0,0,0-.26-.18,1.08,1.08,0,0,0-1,.06.6.6,0,0,0-.26.37.41.41,0,0,0,0,.27.63.63,0,0,0,.33.22,5.54,5.54,0,0,0,.82.22,2.62,2.62,0,0,1,1,.37,1.18,1.18,0,0,1,.47.56,1.24,1.24,0,0,1,0,.69,1.59,1.59,0,0,1-.46.85,2.4,2.4,0,0,1-1,.58A4.09,4.09,0,0,1,207.76,59.1Z"/></svg>