<svg id="Layer_1" data-name="Layer 1" xmlns="http://www.w3.org/2000/svg" width="260" height="68" viewBox="0 0 260 68"><defs><style>.cls-1{fill:#4c8c1e;}.cls-2{fill:#666;}</style></defs><path class="cls-1" d="M32,33.33c0-9.73,4.76-18.16,18.89-18.16,0,9.76-6.41,18.16-18.89,18.16"/><path class="cls-1" d="M54.63,58.9a18.55,18.55,0,0,0,6.77-1.15c0-7.7-4.59-13.21-12.71-17.18a48.19,48.19,0,0,0-20.84-4.73c3.06-9.18.83-20.58-2.14-26.84-3.28,6.56-5.34,17.79-2.18,26.94-6.2.45-11.11,3.15-13.19,6.71-.16.27-.47.85-.28.94s.39-.16.53-.29a11.89,11.89,0,0,1,8.05-3.09c6.58,0,11.23,5.46,14.51,8.74,7.05,7,13.94,10,21.48,9.95"/><path d="M81.8,22.71l-3.43,1.76a1.38,1.38,0,0,1-.51.21c-.13,0-.26-.09-.35-.3-.77-1.84-1.88-2.53-3-2.53H71.64a3.13,3.13,0,0,0-3.08,3.09V37.62a3.13,3.13,0,0,0,3.08,3.09h2.1a3,3,0,0,0,3-3.09v-2c0-.3-.12-.43-.42-.43h-4c-.3,0-.43-.13-.43-.43V31.11c0-.3.13-.43.43-.43h9c.3,0,.43.13.43.43v6.51c0,4.46-3.13,7.59-8,7.59h-2.1c-4.88,0-8-3.13-8-7.59V24.94c0-4.46,3.09-7.59,8-7.59h2.83c3.56,0,5.49,1.46,6.77,3.47a6.08,6.08,0,0,1,.82,1.59C82.06,22.54,82,22.62,81.8,22.71Z"/><path d="M95.43,44.78H85.79c-.3,0-.43-.13-.43-.43V18.21c0-.3.13-.43.43-.43h9.64c4.88,0,8,3.13,8,8v.43a7.13,7.13,0,0,1-2.27,4.63.35.35,0,0,0-.17.3.38.38,0,0,0,.17.3,7.66,7.66,0,0,1,2.27,4.84v.64C103.4,41.74,100.31,44.78,95.43,44.78Zm3.08-19.41a3.12,3.12,0,0,0-3.08-3.09H90.71c-.3,0-.42.13-.42.43v5.7c0,.3.12.43.42.43h4.72a3.13,3.13,0,0,0,3.08-3.09Zm0,11a3,3,0,0,0-3.08-3H90.71c-.3,0-.42.13-.42.43v6.08c0,.3.12.43.42.43h4.72a3.07,3.07,0,0,0,3.08-3.09Z"/><path d="M112,44.78H107.9c-.3,0-.43-.13-.43-.43V18.21c0-.3.13-.43.43-.43H112c.3,0,.43.13.43.43V44.35C112.4,44.65,112.27,44.78,112,44.78Z"/><path d="M133.36,22.28h-10.2c-.3,0-.43.13-.43.43v5.7c0,.3.13.43.43.43h8.35c.3,0,.43.13.43.43v3.64c0,.3-.13.43-.43.43h-8.35c-.3,0-.43.13-.43.43V44.35c0,.3-.13.43-.43.43h-4.07c-.3,0-.43-.13-.43-.43V18.21c0-.3.13-.43.43-.43h15.13c.3,0,.43.13.43.43v3.64C133.79,22.15,133.66,22.28,133.36,22.28Z"/><path class="cls-2" d="M70.53,58.9a.17.17,0,0,1-.17-.1.22.22,0,0,1,0-.21L74.18,52a1,1,0,0,1,.16-.19.47.47,0,0,1,.28-.08H76a.33.33,0,0,1,.24.08.46.46,0,0,1,.08.19l1,6.55a.33.33,0,0,1,0,.23.26.26,0,0,1-.19.08h-1a.29.29,0,0,1-.21-.07.38.38,0,0,1-.08-.17l-.2-1.11H72.69L72,58.69a.57.57,0,0,1-.13.14.32.32,0,0,1-.22.07Zm2.83-2.66h2.1L75,53.31Z"/><path class="cls-2" d="M78.38,58.9a.2.2,0,0,1-.2-.26l1-4.78a.29.29,0,0,1,.11-.19.37.37,0,0,1,.19-.07h1a.22.22,0,0,1,.16.07.2.2,0,0,1,0,.19l-.07.34c.12-.12.26-.24.39-.35a1.88,1.88,0,0,1,.49-.25,1.91,1.91,0,0,1,.66-.1,1.75,1.75,0,0,1,1,.24,1.19,1.19,0,0,1,.52.66,2.65,2.65,0,0,1,.73-.65,1.93,1.93,0,0,1,1-.25,1.78,1.78,0,0,1,.94.24,1.28,1.28,0,0,1,.57.73,2.46,2.46,0,0,1,0,1.27l-.62,2.9a.32.32,0,0,1-.1.19.34.34,0,0,1-.19.07h-1a.22.22,0,0,1-.16-.07.21.21,0,0,1,0-.19l.61-2.82a1.62,1.62,0,0,0,0-.65.51.51,0,0,0-.22-.35.8.8,0,0,0-.41-.1,1.26,1.26,0,0,0-.44.1,1.17,1.17,0,0,0-.43.35,1.39,1.39,0,0,0-.27.65L83,58.64a.33.33,0,0,1-.11.19.32.32,0,0,1-.19.07h-1a.24.24,0,0,1-.17-.07.24.24,0,0,1,0-.19l.6-2.82a1.48,1.48,0,0,0,0-.65.56.56,0,0,0-.23-.35.85.85,0,0,0-.4-.1,1.15,1.15,0,0,0-.87.45,1.51,1.51,0,0,0-.28.64l-.6,2.83a.33.33,0,0,1-.11.19.34.34,0,0,1-.19.07Z"/><path class="cls-2" d="M89.91,59a2.62,2.62,0,0,1-1.29-.29,1.52,1.52,0,0,1-.71-.86,2.92,2.92,0,0,1,0-1.4l0-.21A.8.8,0,0,1,88,56a3.68,3.68,0,0,1,.64-1.35,2.82,2.82,0,0,1,1.07-.87,3.23,3.23,0,0,1,1.4-.3,2.33,2.33,0,0,1,1.35.35,1.65,1.65,0,0,1,.65,1,3,3,0,0,1,0,1.39l0,.23a.29.29,0,0,1-.11.18.37.37,0,0,1-.2.07H89.4a0,0,0,0,1,0,0,.43.43,0,0,1,0,0,1.51,1.51,0,0,0,0,.6.69.69,0,0,0,.24.43.71.71,0,0,0,.49.16,1.14,1.14,0,0,0,.43-.07,1.8,1.8,0,0,0,.31-.17l.2-.18a.6.6,0,0,1,.17-.12.42.42,0,0,1,.18,0h1.06a.21.21,0,0,1,.16.06.15.15,0,0,1,0,.15,1.12,1.12,0,0,1-.25.41,2.85,2.85,0,0,1-.57.47,3.52,3.52,0,0,1-1.91.53Zm-.31-3.25h2v0a1.28,1.28,0,0,0,0-.64.74.74,0,0,0-.26-.42.79.79,0,0,0-.51-.15,1.1,1.1,0,0,0-.57.15,1.4,1.4,0,0,0-.42.42,2.32,2.32,0,0,0-.26.64Zm1-2.91c-.11,0-.15-.05-.13-.16a.25.25,0,0,1,.08-.14l1.09-1a.71.71,0,0,1,.21-.16.41.41,0,0,1,.21,0h1.17c.11,0,.16.06.15.19a.17.17,0,0,1-.08.14L91.79,52.7a1.18,1.18,0,0,1-.19.1.46.46,0,0,1-.22,0Z"/><path class="cls-2" d="M93.84,58.9a.2.2,0,0,1-.2-.26l1-4.78a.29.29,0,0,1,.11-.18A.31.31,0,0,1,95,53.6h1a.19.19,0,0,1,.16.08.22.22,0,0,1,0,.18l-.09.41a1.75,1.75,0,0,1,.62-.49,2.08,2.08,0,0,1,.91-.18h.54a.22.22,0,0,1,.16.07.2.2,0,0,1,0,.19l-.19.87a.29.29,0,0,1-.11.19.31.31,0,0,1-.18.07H97a1.12,1.12,0,0,0-.76.25,1.22,1.22,0,0,0-.4.71l-.58,2.69a.33.33,0,0,1-.11.19.35.35,0,0,1-.2.07Z"/><path class="cls-2" d="M98.41,58.9a.24.24,0,0,1-.17-.07.24.24,0,0,1,0-.19l1-4.78a.29.29,0,0,1,.11-.19.37.37,0,0,1,.2-.07h1a.22.22,0,0,1,.16.07.29.29,0,0,1,0,.19l-1,4.78a.32.32,0,0,1-.1.19.35.35,0,0,1-.2.07Zm1.27-6.11a.22.22,0,0,1-.17-.07.2.2,0,0,1,0-.19l.17-.81a.29.29,0,0,1,.11-.19.27.27,0,0,1,.19-.08H101a.2.2,0,0,1,.17.08.24.24,0,0,1,0,.19l-.19.81a.24.24,0,0,1-.1.19.34.34,0,0,1-.19.07Z"/><path class="cls-2" d="M103.48,59a2.54,2.54,0,0,1-1.23-.28,1.68,1.68,0,0,1-.79-.79,2.16,2.16,0,0,1-.12-1.26c0-.11,0-.25.08-.41s.06-.31.09-.42a3.05,3.05,0,0,1,1-1.72,3.32,3.32,0,0,1,3-.43,2,2,0,0,1,.72.49,1.72,1.72,0,0,1,.36.6,1.35,1.35,0,0,1,.06.54.23.23,0,0,1-.09.19.24.24,0,0,1-.18.07h-1.11a.25.25,0,0,1-.16,0,.34.34,0,0,1-.08-.17.65.65,0,0,0-.19-.51.82.82,0,0,0-.55-.17,1.19,1.19,0,0,0-.8.3,1.65,1.65,0,0,0-.49.91,2.74,2.74,0,0,0-.09.39,2.45,2.45,0,0,0-.06.34,1.34,1.34,0,0,0,.07.91.7.7,0,0,0,.64.29,1.28,1.28,0,0,0,.63-.15,1.38,1.38,0,0,0,.47-.51.48.48,0,0,1,.13-.17.29.29,0,0,1,.17-.05h1.1a.2.2,0,0,1,.17.08.19.19,0,0,1,0,.18,2.62,2.62,0,0,1-.25.52,2.85,2.85,0,0,1-.53.6,2.94,2.94,0,0,1-.86.49A3.44,3.44,0,0,1,103.48,59Z"/><path class="cls-2" d="M109.14,59a2.16,2.16,0,0,1-.88-.17,1.27,1.27,0,0,1-.58-.49,1.69,1.69,0,0,1-.28-.76,3,3,0,0,1,0-1,2.7,2.7,0,0,1,.07-.35c0-.11.05-.22.07-.35a4.55,4.55,0,0,1,.36-1,2.85,2.85,0,0,1,.55-.76,2.28,2.28,0,0,1,.76-.5,2.5,2.5,0,0,1,1-.18,1.92,1.92,0,0,1,1,.19,1.53,1.53,0,0,1,.51.46l.06-.29a.29.29,0,0,1,.11-.19.31.31,0,0,1,.18-.07h1a.22.22,0,0,1,.17.07.2.2,0,0,1,0,.19l-1,4.78a.33.33,0,0,1-.11.19.29.29,0,0,1-.19.07h-1a.2.2,0,0,1-.16-.07.24.24,0,0,1,0-.19l.07-.34a2.93,2.93,0,0,1-.67.5A2.09,2.09,0,0,1,109.14,59Zm.58-1.22a1.16,1.16,0,0,0,.66-.18,1.5,1.5,0,0,0,.44-.43,2.41,2.41,0,0,0,.25-.57l.09-.39c0-.13,0-.25.07-.38a1.57,1.57,0,0,0,0-.53.64.64,0,0,0-.24-.41.83.83,0,0,0-.56-.17,1.12,1.12,0,0,0-.61.17,1.33,1.33,0,0,0-.41.44,2.55,2.55,0,0,0-.26.61c0,.1-.05.2-.08.31a1.8,1.8,0,0,0-.06.32,3.06,3.06,0,0,0,0,.6.72.72,0,0,0,.2.44A.75.75,0,0,0,109.72,57.78Z"/><path class="cls-2" d="M115.7,58.9a.22.22,0,0,1-.16-.07.21.21,0,0,1,0-.19L116.91,52a.29.29,0,0,1,.11-.18.28.28,0,0,1,.19-.07h1.14a.2.2,0,0,1,.16.07.22.22,0,0,1,0,.18l-1.18,5.51h3.16a.2.2,0,0,1,.16.07.24.24,0,0,1,0,.19l-.18.85a.33.33,0,0,1-.11.19.29.29,0,0,1-.19.07Z"/><path class="cls-2" d="M123.2,59a2.12,2.12,0,0,1-.88-.17,1.29,1.29,0,0,1-.59-.49,1.82,1.82,0,0,1-.28-.76,3,3,0,0,1,0-1c0-.13,0-.25.06-.35s0-.22.08-.35a5.16,5.16,0,0,1,.35-1,3.09,3.09,0,0,1,.55-.76,2.28,2.28,0,0,1,.76-.5,2.55,2.55,0,0,1,1-.18,1.85,1.85,0,0,1,.95.19,1.53,1.53,0,0,1,.51.46l.06-.29a.33.33,0,0,1,.11-.19.34.34,0,0,1,.19-.07h1a.2.2,0,0,1,.16.07.24.24,0,0,1,0,.19l-1,4.78a.32.32,0,0,1-.1.19.32.32,0,0,1-.19.07h-1a.22.22,0,0,1-.17-.07.2.2,0,0,1,0-.19l.07-.34a3,3,0,0,1-.68.5A2,2,0,0,1,123.2,59Zm.58-1.22a1.13,1.13,0,0,0,.65-.18,1.39,1.39,0,0,0,.44-.43,2.06,2.06,0,0,0,.25-.57,2.74,2.74,0,0,0,.09-.39c0-.13.05-.25.07-.38a1.18,1.18,0,0,0,0-.53.67.67,0,0,0-.23-.41.85.85,0,0,0-.56-.17,1.09,1.09,0,0,0-.61.17,1.36,1.36,0,0,0-.42.44,2.52,2.52,0,0,0-.25.61,2.81,2.81,0,0,0-.08.31c0,.11,0,.21-.07.32a3,3,0,0,0,0,.6.67.67,0,0,0,.2.44A.73.73,0,0,0,123.78,57.78Z"/><path class="cls-2" d="M130.17,58.9a2.5,2.5,0,0,1-1.11-.21,1,1,0,0,1-.55-.65,2.36,2.36,0,0,1,0-1.1L129,54.8h-.79a.19.19,0,0,1-.17-.07.21.21,0,0,1,0-.18l.15-.69a.29.29,0,0,1,.11-.19.34.34,0,0,1,.19-.07h.81l.35-1.68a.34.34,0,0,1,.11-.18.29.29,0,0,1,.2-.07h1a.2.2,0,0,1,.16.07.22.22,0,0,1,0,.18l-.37,1.68H132a.22.22,0,0,1,.16.07.29.29,0,0,1,0,.19l-.14.69a.28.28,0,0,1-.11.18.29.29,0,0,1-.2.07h-1.27l-.43,2c0,.17-.05.32-.06.44a.38.38,0,0,0,.11.29.56.56,0,0,0,.37.1h.77a.19.19,0,0,1,.16.07.19.19,0,0,1,0,.17l-.17.75a.32.32,0,0,1-.1.19.32.32,0,0,1-.19.07Z"/><path class="cls-2" d="M132.4,58.9a.22.22,0,0,1-.16-.07.21.21,0,0,1,0-.19l1-4.78a.35.35,0,0,1,.12-.19.34.34,0,0,1,.19-.07h1a.2.2,0,0,1,.16.07.2.2,0,0,1,0,.19l-1,4.78a.27.27,0,0,1-.1.19.32.32,0,0,1-.19.07Zm1.27-6.11a.2.2,0,0,1-.16-.07.24.24,0,0,1,0-.19l.17-.81a.33.33,0,0,1,.11-.19.3.3,0,0,1,.2-.08H135a.21.21,0,0,1,.17.08.29.29,0,0,1,0,.19l-.18.81a.27.27,0,0,1-.1.19.4.4,0,0,1-.2.07Z"/><path class="cls-2" d="M135.33,58.9a.22.22,0,0,1-.16-.07.24.24,0,0,1,0-.19l1-4.78a.29.29,0,0,1,.11-.19.34.34,0,0,1,.19-.07h1a.2.2,0,0,1,.16.07.2.2,0,0,1,0,.19l-.08.39a2.79,2.79,0,0,1,.76-.53,2.19,2.19,0,0,1,1-.22,2,2,0,0,1,1.09.27,1.36,1.36,0,0,1,.56.79,2.47,2.47,0,0,1,0,1.24l-.61,2.84a.32.32,0,0,1-.1.19.37.37,0,0,1-.2.07H139a.26.26,0,0,1-.17-.07.24.24,0,0,1,0-.19l.59-2.78a1.24,1.24,0,0,0,0-.85c-.1-.19-.33-.29-.68-.29a1.34,1.34,0,0,0-.88.3,1.4,1.4,0,0,0-.47.84l-.59,2.78a.33.33,0,0,1-.11.19.34.34,0,0,1-.19.07Z"/><path class="cls-2" d="M143.65,59a2.16,2.16,0,0,1-.88-.17,1.35,1.35,0,0,1-.59-.49,2,2,0,0,1-.28-.76,3.28,3.28,0,0,1,0-1,2.7,2.7,0,0,1,.07-.35c0-.11.05-.22.07-.35a4.55,4.55,0,0,1,.36-1,2.85,2.85,0,0,1,.55-.76,2.28,2.28,0,0,1,.76-.5,2.5,2.5,0,0,1,1-.18,1.92,1.92,0,0,1,1,.19,1.75,1.75,0,0,1,.51.46l.06-.29a.32.32,0,0,1,.1-.19.34.34,0,0,1,.19-.07h1a.24.24,0,0,1,.17.07.24.24,0,0,1,0,.19l-1,4.78a.33.33,0,0,1-.11.19.32.32,0,0,1-.19.07h-1a.24.24,0,0,1-.17-.07.29.29,0,0,1,0-.19l.07-.34a2.93,2.93,0,0,1-.67.5A2.09,2.09,0,0,1,143.65,59Zm.58-1.22a1.16,1.16,0,0,0,.66-.18,1.5,1.5,0,0,0,.44-.43,2.41,2.41,0,0,0,.25-.57l.09-.39c0-.13.05-.25.07-.38a1.57,1.57,0,0,0,0-.53.74.74,0,0,0-.24-.41.83.83,0,0,0-.56-.17,1.12,1.12,0,0,0-.61.17,1.24,1.24,0,0,0-.41.44,2.55,2.55,0,0,0-.26.61c0,.1,0,.2-.08.31a1.8,1.8,0,0,0-.06.32,3.06,3.06,0,0,0,0,.6.72.72,0,0,0,.2.44A.75.75,0,0,0,144.23,57.78Z"/><path class="cls-2" d="M152.12,59a2.62,2.62,0,0,1-1.29-.29,1.52,1.52,0,0,1-.71-.86,2.92,2.92,0,0,1-.05-1.4,1.65,1.65,0,0,0,.05-.21.8.8,0,0,1,0-.22,3.68,3.68,0,0,1,.64-1.35,2.9,2.9,0,0,1,1.07-.87,3.23,3.23,0,0,1,1.4-.3,2.33,2.33,0,0,1,1.35.35,1.71,1.71,0,0,1,.66,1,3.24,3.24,0,0,1,0,1.39l0,.23a.36.36,0,0,1-.12.18.37.37,0,0,1-.2.07h-3.32a0,0,0,0,1,0,0,.07.07,0,0,1,0,0,2,2,0,0,0,0,.6.69.69,0,0,0,.24.43.71.71,0,0,0,.49.16,1.11,1.11,0,0,0,.43-.07,1.49,1.49,0,0,0,.31-.17,2,2,0,0,0,.2-.18.6.6,0,0,1,.17-.12.44.44,0,0,1,.19,0h1a.21.21,0,0,1,.16.06.15.15,0,0,1,0,.15,1.12,1.12,0,0,1-.25.41,2.85,2.85,0,0,1-.57.47,3.27,3.27,0,0,1-.84.38A3.59,3.59,0,0,1,152.12,59Zm-.31-3.25h2v0a1.28,1.28,0,0,0,0-.64.74.74,0,0,0-.26-.42.76.76,0,0,0-.5-.15,1.1,1.1,0,0,0-.57.15,1.33,1.33,0,0,0-.43.42,2.32,2.32,0,0,0-.26.64Z"/><path class="cls-2" d="M160.47,59a3.88,3.88,0,0,1-1.23-.18,2.25,2.25,0,0,1-.89-.53,2,2,0,0,1-.48-.87,2.9,2.9,0,0,1,0-1.18q.08-.42.18-.9c.07-.31.14-.62.21-.91a4.09,4.09,0,0,1,.68-1.49,2.92,2.92,0,0,1,1.16-.95,4.08,4.08,0,0,1,1.67-.32,3.85,3.85,0,0,1,1.21.17,2.34,2.34,0,0,1,.91.49,1.67,1.67,0,0,1,.53.76,1.81,1.81,0,0,1,.06,1,.22.22,0,0,1-.08.15.18.18,0,0,1-.15.07H163a.21.21,0,0,1-.18-.07.27.27,0,0,1-.08-.2.87.87,0,0,0-.29-.81,1.38,1.38,0,0,0-.85-.24,1.78,1.78,0,0,0-1.09.35,1.92,1.92,0,0,0-.65,1.15c-.14.56-.27,1.13-.37,1.71a1.44,1.44,0,0,0,.14,1.15,1.13,1.13,0,0,0,.91.35,2,2,0,0,0,.95-.23,1.74,1.74,0,0,0,.69-.82.63.63,0,0,1,.16-.21.3.3,0,0,1,.2-.06h1.17a.2.2,0,0,1,.15.06.21.21,0,0,1,0,.16,3.38,3.38,0,0,1-.43,1,3.24,3.24,0,0,1-.71.77,3.29,3.29,0,0,1-1,.5A4.78,4.78,0,0,1,160.47,59Z"/><path class="cls-2" d="M166.63,59a2.16,2.16,0,0,1-.88-.17,1.35,1.35,0,0,1-.59-.49,2,2,0,0,1-.28-.76,3.28,3.28,0,0,1,0-1,2.7,2.7,0,0,1,.07-.35c0-.11,0-.22.07-.35a4.55,4.55,0,0,1,.36-1,2.85,2.85,0,0,1,.55-.76,2.28,2.28,0,0,1,.76-.5,2.5,2.5,0,0,1,1-.18,1.92,1.92,0,0,1,1,.19,1.75,1.75,0,0,1,.51.46l.06-.29a.32.32,0,0,1,.1-.19.34.34,0,0,1,.19-.07h1a.24.24,0,0,1,.17.07.24.24,0,0,1,0,.19l-1,4.78a.27.27,0,0,1-.1.19.32.32,0,0,1-.19.07h-1a.24.24,0,0,1-.17-.07.24.24,0,0,1,0-.19l.07-.34a2.93,2.93,0,0,1-.67.5A2.09,2.09,0,0,1,166.63,59Zm.58-1.22a1.16,1.16,0,0,0,.66-.18,1.5,1.5,0,0,0,.44-.43,2,2,0,0,0,.24-.57c0-.13.07-.26.1-.39s0-.25.07-.38a1.57,1.57,0,0,0,0-.53.74.74,0,0,0-.24-.41.83.83,0,0,0-.56-.17,1.12,1.12,0,0,0-.61.17,1.36,1.36,0,0,0-.42.44,3,3,0,0,0-.25.61c0,.1,0,.2-.08.31a1.8,1.8,0,0,0-.06.32,3.06,3.06,0,0,0,0,.6.72.72,0,0,0,.2.44A.75.75,0,0,0,167.21,57.78Z"/><path class="cls-2" d="M171.27,58.9a.22.22,0,0,1-.16-.07.21.21,0,0,1,0-.19l1-4.78a.29.29,0,0,1,.11-.18.29.29,0,0,1,.19-.08h1a.19.19,0,0,1,.16.08.22.22,0,0,1,0,.18l-.08.41a1.67,1.67,0,0,1,.62-.49,2,2,0,0,1,.91-.18h.54a.22.22,0,0,1,.16.07.24.24,0,0,1,0,.19l-.19.87a.33.33,0,0,1-.11.19.34.34,0,0,1-.19.07h-.88a1.12,1.12,0,0,0-.76.25,1.16,1.16,0,0,0-.4.71l-.58,2.69a.33.33,0,0,1-.11.19.35.35,0,0,1-.2.07Z"/><path class="cls-2" d="M175.83,58.9a.2.2,0,0,1-.2-.26l1-4.78a.29.29,0,0,1,.11-.19.37.37,0,0,1,.19-.07h1a.22.22,0,0,1,.17.07.29.29,0,0,1,0,.19l-1,4.78a.39.39,0,0,1-.1.19.35.35,0,0,1-.2.07Zm1.28-6.11a.22.22,0,0,1-.17-.07.24.24,0,0,1,0-.19l.18-.81a.31.31,0,0,1,.3-.27h1.07a.2.2,0,0,1,.17.08.2.2,0,0,1,0,.19l-.18.81a.27.27,0,0,1-.1.19.37.37,0,0,1-.19.07Z"/><path class="cls-2" d="M181.63,59a2.13,2.13,0,0,1-1-.2,1.29,1.29,0,0,1-.55-.5l-.09.34a.27.27,0,0,1-.1.19.34.34,0,0,1-.19.07h-1a.22.22,0,0,1-.16-.07.24.24,0,0,1,0-.19L180,51.92a.34.34,0,0,1,.11-.18.29.29,0,0,1,.2-.07h1a.19.19,0,0,1,.16.07.27.27,0,0,1,0,.18l-.47,2.22a2.81,2.81,0,0,1,.68-.46,1.94,1.94,0,0,1,.88-.18,2.22,2.22,0,0,1,.9.17,1.43,1.43,0,0,1,.59.49,1.7,1.7,0,0,1,.29.76,2.78,2.78,0,0,1,0,.95l-.06.38c0,.11-.06.24-.09.37a4.06,4.06,0,0,1-.53,1.25,2.54,2.54,0,0,1-.87.83A2.36,2.36,0,0,1,181.63,59Zm-.28-1.22a1.14,1.14,0,0,0,.63-.17,1.29,1.29,0,0,0,.43-.44,3.2,3.2,0,0,0,.26-.6c0-.11.06-.21.09-.32a1.76,1.76,0,0,0,0-.31,2.11,2.11,0,0,0,0-.61.67.67,0,0,0-.2-.44.79.79,0,0,0-.57-.17,1.25,1.25,0,0,0-.64.17,1.36,1.36,0,0,0-.45.41,1.83,1.83,0,0,0-.25.53c0,.13-.07.25-.1.38l-.06.39a1.82,1.82,0,0,0,0,.57.76.76,0,0,0,.23.43A.81.81,0,0,0,181.35,57.78Z"/><path class="cls-2" d="M187.39,59a2.62,2.62,0,0,1-1.29-.29,1.52,1.52,0,0,1-.71-.86,2.92,2.92,0,0,1,0-1.4,1.65,1.65,0,0,0,0-.21.8.8,0,0,1,.05-.22,3.68,3.68,0,0,1,.64-1.35,2.82,2.82,0,0,1,1.07-.87,3.23,3.23,0,0,1,1.4-.3,2.33,2.33,0,0,1,1.35.35,1.71,1.71,0,0,1,.66,1,3.24,3.24,0,0,1,0,1.39l-.05.23a.29.29,0,0,1-.11.18.37.37,0,0,1-.2.07h-3.32a0,0,0,0,1,0,0,.07.07,0,0,1,0,0,1.51,1.51,0,0,0,0,.6.69.69,0,0,0,.24.43.71.71,0,0,0,.49.16,1.14,1.14,0,0,0,.43-.07,1.49,1.49,0,0,0,.31-.17l.2-.18a.6.6,0,0,1,.17-.12.44.44,0,0,1,.19,0h1.05a.21.21,0,0,1,.16.06.15.15,0,0,1,0,.15,1.12,1.12,0,0,1-.25.41,2.85,2.85,0,0,1-.57.47,3.52,3.52,0,0,1-1.91.53Zm-.31-3.25h2v0a1.28,1.28,0,0,0,0-.64.74.74,0,0,0-.26-.42.76.76,0,0,0-.5-.15,1.11,1.11,0,0,0-.58.15,1.4,1.4,0,0,0-.42.42,2.32,2.32,0,0,0-.26.64Z"/></svg>